# xmcd
#
# Track frame offsets: 
#        182
#        18497
#        44140
#        68462
#        94067
#        119872
#
# Disc length: 1859 seconds
#
# Revision: 0
# Processed by: cddbd v1.4PL0 Copyright (c) Steve Scherf et al.
# Submitted via: ExactAudioCopy v0.95a3
#
DISCID=52074106
DTITLE=All-4-One - I'm Your Man
DYEAR=1995
DGENRE=Soul
TTITLE0=I'm Your Man (The Radio Edit)
TTITLE1=I'm Your Man (The Smooth Remix)
TTITLE2=I'm Your Man (The LP Version)
TTITLE3=I'm Your Man (The Bump Ya Remix)
TTITLE4=I'm Your Man (The I Wanna Be With You Remix)
TTITLE5=Christmas With My Baby
EXTD=
EXTT0=
EXTT1=
EXTT2=
EXTT3=
EXTT4=
EXTT5=
PLAYORDER=
